<svg width="63" height="63" viewBox="0 0 63 63" fill="none" xmlns="http://www.w3.org/2000/svg">
<path d="M30 31.9481H32.2L31.1 30L30 31.9481Z" fill="#06B6D4"/>
<path d="M25.3744 39.734L22.3077 45.2147C21.8478 46.0351 21.0904 46.6336 20.2023 46.8785C19.3141 47.1235 18.368 46.9948 17.5719 46.5208C16.7758 46.0468 16.195 45.2663 15.9573 44.351C15.7196 43.4358 15.8445 42.4606 16.3044 41.6402L17.372 39.734M17.372 39.734H25.3725H37.3014M17.372 39.734H16.4675C15.5478 39.734 14.6659 39.3575 14.0156 38.6874C13.3653 38.0172 13 37.1083 13 36.1606C13 35.2128 13.3653 34.3039 14.0156 33.6338C14.6659 32.9636 15.5478 32.5871 16.4675 32.5871H21.3722L27.3367 21.9318L25.3375 18.3574C25.1099 17.9513 24.9622 17.503 24.9027 17.038C24.8432 16.5731 24.8731 16.1006 24.9908 15.6476C25.1085 15.1946 25.3116 14.7699 25.5886 14.3978C25.8655 14.0256 26.2109 13.7134 26.605 13.4788C26.999 13.2442 27.4341 13.092 27.8852 13.0306C28.3364 12.9693 28.7948 13.0002 29.2344 13.1215C29.674 13.2428 30.0861 13.4521 30.4472 13.7375C30.8083 14.023 31.1113 14.3789 31.3389 14.785C31.7986 13.9653 32.5554 13.3675 33.4428 13.1229C34.3302 12.8783 35.2756 13.0071 36.0709 13.4808C36.8662 13.9545 37.4463 14.7345 37.6837 15.649C37.921 16.5635 37.7961 17.5378 37.3364 18.3574L35.3372 21.9298M31.3408 29.0767L35.3392 21.9298L41.3037 32.5871H46.5325C47.4522 32.5871 48.3341 32.9636 48.9844 33.6338C49.6347 34.3039 50 35.2128 50 36.1606C50 37.1083 49.6347 38.0172 48.9844 38.6874C48.3341 39.3575 47.4522 39.734 46.5325 39.734H45.302L46.3695 41.6402C46.8294 42.4604 46.9544 43.4352 46.7169 44.3503C46.4794 45.2654 45.8989 46.0458 45.103 46.5198C44.3072 46.9938 43.3613 47.1226 42.4733 46.8778C41.5853 46.6331 40.8281 46.0348 40.3681 45.2147L37.3014 39.734L33.3012 32.5871H29.3727L31.337 29.0767L33.3031 32.5871" stroke="#06B6D4" stroke-width="2" stroke-linejoin="round"/>
</svg>
