<svg width="63" height="63" viewBox="0 0 63 63" fill="none" xmlns="http://www.w3.org/2000/svg">
<path d="M28.4 39.3125H42.35V29.9375H28.4V39.3125ZM19.1 44C18.2475 44 17.518 43.6943 16.9114 43.0828C16.3048 42.4714 16.001 41.7354 16 40.875V22.125C16 21.2656 16.3038 20.5302 16.9114 19.9187C17.519 19.3073 18.2485 19.001 19.1 19H43.9C44.7525 19 45.4825 19.3062 46.0901 19.9187C46.6977 20.5312 47.001 21.2667 47 22.125V40.875C47 41.7344 46.6967 42.4703 46.0901 43.0828C45.4836 43.6953 44.7535 44.001 43.9 44H19.1Z" fill="#06B6D4"/>
</svg>
