<svg width="63" height="63" viewBox="0 0 63 63" fill="none" xmlns="http://www.w3.org/2000/svg">
<path d="M22.0829 15.2945C22.279 15.4654 22.413 15.6963 22.4642 15.9512C22.5154 16.2062 22.4808 16.4709 22.3658 16.7041C22.3449 16.7729 22.3345 16.8444 22.3351 16.9163C22.3351 17.0648 22.3729 17.3476 22.7289 17.7012C22.901 17.8733 23.033 17.9958 23.1768 18.1302C23.2947 18.2386 23.4197 18.3518 23.5776 18.5073C23.8841 18.7996 24.2071 19.1438 24.4971 19.5751C25.0983 20.4779 25.4307 21.607 25.4307 23.2499C25.4307 24.1504 25.2822 24.9942 25.0111 25.7414C24.2425 27.8629 22.5143 29.1428 20.7154 29.1428C18.9166 29.1428 17.1884 27.8605 16.4198 25.7414C16.1363 24.9416 15.9943 24.0985 16.0002 23.2499C16.0002 22.4815 16.2053 21.5646 16.4882 20.7184C16.7711 19.8721 17.1672 18.9929 17.6246 18.2858C18.1692 17.3665 18.9354 16.5957 19.5296 16.0771C19.8565 15.7922 20.1963 15.5224 20.5481 15.2686L20.6188 15.2215L20.64 15.205L20.6471 15.2003L20.6518 15.1979C20.868 15.0538 21.1257 14.9852 21.3849 15.0027C21.6442 15.0201 21.8904 15.1228 22.0852 15.2945M20.7154 31.5C22.2129 31.5038 23.6638 30.9796 24.813 30.0197C24.8602 30.1674 24.905 30.3167 24.9474 30.4675C25.4307 32.2401 25.4307 34.4322 25.4307 36.127V36.2143C25.4307 41.0653 24.523 43.9457 23.4951 45.6594C23.1056 46.3333 22.5958 46.9301 21.9909 47.4201C21.7503 47.6063 21.4893 47.7645 21.2129 47.8916C21.2129 47.8916 20.9135 48 20.7154 48C20.5455 47.9865 20.3781 47.95 20.218 47.8916C19.9416 47.7645 19.6806 47.6063 19.44 47.4201C18.8351 46.9301 18.3253 46.3333 17.9358 45.6594C16.9079 43.9481 16.0002 41.0653 16.0002 36.2143V36.1294C16.0002 34.4322 16.0002 32.2425 16.4835 30.4652C16.5244 30.3174 16.5692 30.1682 16.6179 30.0173C17.7661 30.9798 19.2171 31.5065 20.7154 31.5047M30.1413 38.5125C29.324 38.4213 28.5202 38.2354 27.7459 37.9585C27.7742 37.3645 27.7884 36.7517 27.7884 36.12V35.4222C28.5192 35.7687 29.3114 36.0115 30.1413 36.1294V31.5C30.1413 30.2496 30.6381 29.0505 31.5223 28.1664C32.4066 27.2823 33.606 26.7857 34.8565 26.7857H39.4893C39.3018 25.4824 38.805 24.2429 38.0404 23.1708C37.2758 22.0987 36.2657 21.2252 35.0944 20.6232C33.9232 20.0212 32.6248 19.7082 31.3078 19.7104C29.9908 19.7126 28.6935 20.0299 27.5243 20.6359C27.3391 19.8652 27.0336 19.1286 26.619 18.4531C28.147 17.6981 29.8345 17.3223 31.5386 17.3575C33.2427 17.3926 34.9133 17.8378 36.4089 18.6553C37.9044 19.4727 39.181 20.6384 40.1304 22.0537C41.0799 23.4689 41.6744 25.092 41.8634 26.7857H44.2847C45.5353 26.7857 46.7346 27.2823 47.6189 28.1664C48.5032 29.0505 49 30.2496 49 31.5V40.9286C49 42.1789 48.5032 43.378 47.6189 44.2621C46.7346 45.1462 45.5353 45.6429 44.2847 45.6429H34.8542C33.6036 45.6429 32.4043 45.1462 31.52 44.2621C30.6357 43.378 30.1389 42.1789 30.1389 40.9286L30.1413 38.5125ZM41.8658 29.1428C41.5987 31.5347 40.526 33.7646 38.8239 35.4665C37.1217 37.1683 34.8913 38.2408 32.4989 38.5078V40.9286C32.4989 41.5537 32.7473 42.1533 33.1894 42.5953C33.6316 43.0374 34.2313 43.2857 34.8565 43.2857H44.2871C44.9124 43.2857 45.512 43.0374 45.9542 42.5953C46.3963 42.1533 46.6447 41.5537 46.6447 40.9286V31.5C46.6447 30.8748 46.3963 30.2752 45.9542 29.8332C45.512 29.3911 44.9124 29.1428 44.2871 29.1428H41.8658ZM39.4893 29.1428H34.8565C34.2313 29.1428 33.6316 29.3911 33.1894 29.8332C32.7473 30.2752 32.4989 30.8748 32.4989 31.5V36.1318C34.2627 35.8776 35.8967 35.0595 37.1568 33.7997C38.4168 32.5399 39.2351 30.9062 39.4893 29.1428Z" fill="#06B6D4"/>
</svg>
