<svg width="63" height="63" viewBox="0 0 63 63" fill="none" xmlns="http://www.w3.org/2000/svg">
<path fill-rule="evenodd" clip-rule="evenodd" d="M38.0958 15.9988C38.2555 15.4001 38.1759 14.7628 37.8739 14.2218C37.5718 13.6809 37.071 13.2788 36.4776 13.1006C35.8842 12.9225 35.2447 12.9824 34.6947 13.2676C34.1446 13.5529 33.7272 14.041 33.5309 14.6287L23.9942 46.4178C23.8388 47.0151 23.9212 47.6495 24.224 48.1873C24.5268 48.7252 25.0264 49.1247 25.6177 49.3017C26.209 49.4788 26.8459 49.4196 27.3945 49.1367C27.9431 48.8538 28.3605 48.3691 28.5591 47.7847L38.0958 15.9988ZM20.0142 21.5746C20.4607 22.0216 20.7114 22.6276 20.7114 23.2594C20.7114 23.8912 20.4607 24.4972 20.0142 24.9442L13.7517 31.2067L20.0142 37.4691C20.4353 37.9211 20.6646 38.5189 20.6537 39.1365C20.6428 39.7542 20.3926 40.3435 19.9558 40.7803C19.5189 41.2172 18.9296 41.4674 18.3119 41.4783C17.6943 41.4892 17.0965 41.2599 16.6445 40.8388L8.69726 32.8915C8.25078 32.4445 8 31.8385 8 31.2067C8 30.5749 8.25078 29.9689 8.69726 29.5218L16.6445 21.5746C17.0916 21.1281 17.6975 20.8773 18.3294 20.8773C18.9612 20.8773 19.5671 21.1281 20.0142 21.5746ZM42.0758 40.8388C41.6293 40.3917 41.3786 39.7858 41.3786 39.1539C41.3786 38.5221 41.6293 37.9162 42.0758 37.4691L48.3383 31.2067L42.0758 24.9442C41.6547 24.4923 41.4254 23.8945 41.4363 23.2768C41.4472 22.6591 41.6974 22.0698 42.1342 21.633C42.5711 21.1962 43.1604 20.946 43.7781 20.9351C44.3957 20.9242 44.9935 21.1534 45.4455 21.5746L53.3927 29.5218C53.8392 29.9689 54.09 30.5749 54.09 31.2067C54.09 31.8385 53.8392 32.4445 53.3927 32.8915L45.4455 40.8388C44.9984 41.2852 44.3925 41.536 43.7606 41.536C43.1288 41.536 42.5229 41.2852 42.0758 40.8388Z" fill="#06B6D4"/>
</svg>
